<?xml version="1.0" encoding="utf-8"?>
<!-- Generator: Adobe Illustrator 24.1.2, SVG Export Plug-In . SVG Version: 6.00 Build 0)  -->
<svg version="1.1" id="Layer_1" xmlns="http://www.w3.org/2000/svg" xmlns:xlink="http://www.w3.org/1999/xlink" x="0px" y="0px"
	 viewBox="0 0 1280 720" style="enable-background:new 0 0 1280 720;" xml:space="preserve">
<style type="text/css">
	.st0{fill:#FFFFFF;}
	.st1{fill:#389AD5;}
	.st2{fill:#1E74BB;}
	.st3{fill:#E6E6E5;}
	.st4{fill:#E44E26;}
</style>
<polygon class="st0" points="737.4,0 529.3,720 0,720 0,0 "/>
<polygon class="st1" points="1280,0 1280,720 529.3,720 737.4,0 "/>
<g>
	<path class="st2" d="M1020.4,258.6c0,1.2,0,2.4,0,3.5c-1,2.5-0.9,5.1-1.1,7.6c-0.6,7.7-1.1,15.4-1.9,23.1
		c-1.1,11.2-2.1,22.3-2.9,33.5c-0.8,1.1-0.3,2.4-0.4,3.6c0,0.8,0,1.6,0,2.4c-0.8,2.3-0.7,4.7-0.6,7.1c-0.7,2.5-0.6,5.1-0.7,7.6
		c-0.7,3.7-0.9,7.5-1.1,11.2c-0.5,2.5-0.8,5.1-0.6,7.7c-0.6,2.7-0.7,5.5-0.7,8.2c-0.8,2.1-0.5,4.3-0.6,6.5c-0.7,3.9-1,7.9-1.1,11.8
		c-0.6,5.1-1.2,10.2-1.3,15.3c-0.7,3.7-1.1,7.5-1.1,11.3c-0.4,2.9-0.8,5.9-0.7,8.8c-0.8,3.5-0.7,7.1-1,10.6c0,1-0.1,1.9-0.1,2.9
		c-0.7,4.3-1.1,8.6-1.1,13c-0.8,2.3-0.5,4.7-0.7,7c-0.8,3.5-0.8,7.1-1,10.7c-0.2,2.9-0.9,5.9-0.6,8.8c-0.8,3.9-0.8,7.9-1.1,11.8
		c-0.1,0.8-0.1,1.5-0.2,2.3c-6.1,1.8-12.2,3.6-18.3,5.4c-2.7,0.8-5.5,1.6-8.2,2.4c-6.1,1.7-12.3,3.1-18.3,5.3
		c-2.7,0.8-5.5,1.6-8.2,2.4c-3.4,0.8-6.8,1.5-10.1,2.9c-5.6,1.2-11.1,2.9-16.5,4.7c-4.8,1.2-9.6,2.2-14.1,4.2c-0.4,0-0.8,0-1.2,0
		c-3.8-1.6-7.8-2.4-11.8-3.4c-2.4-0.6-4.7-1.3-7.1-1.9c-6.2-2.1-12.5-3.8-18.9-5.3c-2.7-1.1-5.5-1.8-8.3-2.3
		c-6.1-1.7-12.2-3.4-18.3-5.1c-2.9-0.9-5.8-1.9-8.8-2.4c-2.8-1.3-5.9-1.8-8.8-2.5c-3-0.9-6.1-1.9-9.1-2.7c-5.2-1.4-5.2-1.4-5.8-6.7
		c-0.2-4-0.3-7.9-1-11.8c-0.4-5.7-0.9-11.4-1.3-17c0.2-2.2-0.1-4.4-0.6-6.5c0.3-2.8-0.4-5.5-0.6-8.3c-0.3-3.9-0.7-7.9-1-11.8
		c-0.1-2.3,0.2-4.7-0.7-7c0.2-2.8-0.1-5.5-0.6-8.3c0.3-2.8-0.5-5.5-0.6-8.3c-0.3-3.9-0.3-7.9-1.1-11.8c0-1-0.1-1.9-0.1-2.9
		c-0.3-4.1-0.4-8.3-1.1-12.4c0.2-3-0.2-5.9-0.6-8.8c-0.3-4-0.3-7.9-1.1-11.8c-0.1-4.9-0.5-9.8-1.3-14.7c0.2-3-0.2-5.9-0.6-8.9
		c-0.2-2.9-0.4-5.9-0.6-8.8c-0.3-3.6-0.3-7.2-1-10.7c-0.1-2.4,0.2-4.8-0.6-7.1c0.1-3-0.1-5.9-0.7-8.8c0.3-3-0.4-5.9-0.6-8.8
		c-0.3-4-0.3-7.9-1.1-11.8c0-1-0.1-1.9-0.1-2.9c-0.3-3.9-0.3-7.9-1.1-11.8c0.1-2.6,0.1-5.2-0.6-7.7c-0.3-1.9,0.4-2.5,2.3-2.3
		c1.6,0.2,3.2,0,4.9-0.1c2.9,0,5.9,0,8.8,0c3,0,5.9,0,8.9,0c2.9,0,5.9,0,8.8,0c3,0,5.9,0,8.9,0c2.9,0,5.9,0,8.8,0c3,0,5.9,0,8.9,0
		c2.9,0,5.9,0,8.8,0c3,0,5.9,0,8.9,0c2.9,0,5.9,0,8.8,0c3,0,5.9,0,8.9,0c2.9,0,5.9,0,8.8,0c3,0,5.9,0,8.9,0c2.9,0,5.9,0,8.8,0
		c3,0,5.9,0,8.9,0c2.9,0,5.9,0,8.8,0c3,0,5.9,0,8.9,0c2.9,0,5.9,0,8.8,0c3,0,5.9,0,8.9,0c2.9,0,5.9,0,8.8,0c3,0,5.9,0,8.9,0
		c2.9,0,5.9,0,8.8,0c3,0,5.9,0,8.9,0c2.9,0,5.9,0,8.8,0c3,0,5.9,0,8.9,0c2.9,0,5.9,0,8.8,0C1018.5,258.5,1019.4,258.5,1020.4,258.6z
		 M906.5,438.4c-2,0.7-4,1.1-6.1,0.5c-8.9-2.2-17.8-4.5-26.7-6.7c-1.4-0.4-2.1-0.9-2.2-2.4c-0.6-6-1.5-12-2.1-18.1
		c-0.2-1.7-0.8-2.1-2.3-2.1c-8.3,0.1-16.5,0.1-24.8,0c-1.6,0-1.8,0.6-1.7,1.9c0.8,8.5,1.5,17,2.2,25.4c0.4,5.1,0.8,10.1,1.3,15.2
		c0.2,1.6,0.4,2.9,2.7,3.5c9.1,2.3,18.1,5,27.1,7.5c10.6,2.9,21.3,5.8,32,8.6c-0.5,1.2-0.6,2.5-0.6,3.7c0,5.9,0,11.8,0,17.7
		c0,6.2,0,6.2,6,4.4c23.2-6.7,46.4-13.4,69.7-20c1.8-0.5,2.4-1.3,2.6-3.1c0.8-10.8,1.7-21.6,2.7-32.4c1.3-14.7,2.7-29.5,4.1-44.2
		c1.1-12.2,2.2-24.5,3.2-36.7c1.1-12.8,2.2-25.6,3.3-38.5c1.1-12.8,2.3-25.6,3.5-38.4c0.2-1.9-0.1-2.9-2.4-2.9c-30,0.1-60,0.1-90,0
		c-2.1,0-2.7,0.7-2.6,2.7c0.1,6.9,0.2,13.8,0,20.6c-0.1,2.6,0.7,3.3,3.3,3.3c21.6-0.1,43.3-0.1,64.9,0c1.1,0,2.4-0.6,3.2,0.8
		c-48,0-96,0-143.9-0.1c-2.3,0-2.5,0.9-2.2,2.8c1.2,7.6,2.5,15.3,3.2,22.9c0.3,2.9,1.4,3,3.6,3c20.7-0.1,41.5-0.1,62.2-0.1
		c1,0,2,0,3,0c-21.7,9.9-43.3,19.4-65,28.7c-2,0.8-2.1,1.8-1.9,3.4c1.1,7.4,2.1,14.7,3.1,22.1c0.3,2,1,2.6,3.1,2.6
		c20.9-0.1,41.9,0,62.8,0c0.8,1,0.6,2.2,0.6,3.4c0,12.4,0,24.9,0,37.3C905.3,436.3,905.2,437.6,906.5,438.4z"/>
	<path class="st0" d="M936.6,197.8c12,0,24,0,36,0c-0.4,2.9-0.3,5.9-0.1,8.9c0,2.1-0.1,4.2-0.1,6.4c-3.8,0-7.6,0-12,0
		c1.4,1.7,2.3,2.7,3.2,3.8c0.1,0.5,0.3,0.9,0.8,1.1c0.2,0.2,0.4,0.5,0.7,0.7c1.1,2.2,2.8,4,4.4,5.9c1,1.4,2,2.8,3,4.1
		c0,1.5,0.1,3.1,0.1,4.6c0,2.3-0.1,4.6-0.1,6.9c0,1.2-0.5,1.7-1.7,1.7c-2.1,0-4.2,0.1-6.4,0.1c-2.9-0.3-5.9-0.3-8.8,0
		c-3,0-5.9,0-8.9,0c-2.9,0-5.8-0.1-8.7-0.1c-0.2-0.2-0.4-0.3-0.6-0.5c0.1-0.2,0-0.4-0.1-0.5c0.3-2.5,0.3-5.1,0-7.6
		c0.5-1.9-0.4-3.9,0.6-5.7c2.9,0,5.8,0,8.7-0.1c0.8,0.2,1.5,0.5,2.3-0.3c-0.8-1-1.5-1.9-2.2-2.8l0,0c-2.6-3.8-5.2-7.6-7.9-11.4
		c-1.4-1.9-2.5-3.8-2.2-6.3C936.5,203.7,936.6,200.8,936.6,197.8z"/>
	<path class="st0" d="M886.4,197.8c12,0,24,0,36,0c0,2.9,0.1,5.9,0.1,8.8c-0.6,2.2,0.7,4.6-0.7,6.7c-3.1,0-6.3,0-9.4,0
		c-0.4-0.1-0.9-0.4-1.1,0.2c-0.1,0.4,0.1,0.7,0.5,0.8c0.6,0.8,1.2,1.6,1.8,2.4c0.6,0.8,1.2,1.5,1.8,2.3c0,0.5,0.3,0.6,0.7,0.8
		c0.9,1.5,1.9,2.9,3.2,4c0.3,0.4,0.6,0.7,0.8,1.1c2.5,2.3,2.6,5.2,2.5,8.3c-0.4,2.9,0.3,5.9-0.4,8.8c-0.7-0.2-1.4-0.3-2.1,0
		c-3,0-5.9,0-8.9,0c-2.9-0.3-5.9-0.3-8.8,0c-3,0-5.9,0-8.9,0c-1.9-0.3-3.7-0.3-5.6,0c-0.7-2.9,0-5.9-0.4-8.8
		c0.3-5.4,0.3-5.4,5.7-5.8c0.1,0,0.2-0.1,0.3-0.1c1.7,0,3.4,0,5.7,0c-3-4.2-5.8-8-8.6-11.9c-1.6-2.8-4.4-5.1-4.1-8.8
		C886.7,203.7,886.8,200.8,886.4,197.8z"/>
	<path class="st0" d="M835.7,197.8c12.2,0,24.4,0,36.6,0c-0.4,2.9-0.3,5.9-0.1,8.9c-0.3,1.8-0.3,3.5,0,5.3c-0.1,0.2-0.2,0.3-0.1,0.5
		c-1.7,0.1-3.4,0.1-5.2,0.2c-2.9,0-5.9,0-8.8,0c-2.2,0-4.4-0.7-6.6,0.4c0,0.2,0,0.4,0,0.6c-0.2,0.6-0.2,1.2,0,1.7c0,3,0,5.9,0,8.9
		c-0.3,0.8-0.3,1.6,0,2.3c-0.1,0.6-0.3,1.3,0.7,0.8c1.9,0,3.8,0,5.8,0c3,0.3,6,0.3,9,0c1.4,0,2.7-0.1,4.1-0.1l0.3,0.1h0.3
		c0.2,0.2,0.3,0.3,0.5,0.5c-0.1,0.2,0,0.4,0.1,0.5c-0.3,1.6-0.3,3.1,0,4.7c0,2.7,0,5.4,0,8.1c-0.2,0.2-0.4,0.4-0.5,0.6
		c-0.2-0.1-0.4,0-0.5,0.1c-1.4-0.3-2.7-0.3-4.1,0c-3,0-5.9,0-8.9,0c-2.9-0.3-5.9-0.3-8.8,0c-3,0-5.9,0-8.9,0c-1.2-0.3-2.3-0.3-3.5,0
		c-0.2-0.1-0.4-0.2-0.6-0.1c-0.2-0.2-0.4-0.4-0.5-0.6c0-2.7,0-5.4-0.1-8.1c0.3-2.9,0.3-5.9,0-8.8c0.2-3,0.2-5.9,0-8.9
		c0.3-2.9,0.3-5.9,0-8.8C836,203.7,836,200.8,835.7,197.8z"/>
	<path class="st0" d="M905.9,471.8c-10.7-2.9-21.3-5.7-32-8.6c-9-2.5-18-5.2-27.1-7.5c-2.3-0.6-2.5-1.8-2.7-3.5
		c-0.5-5.1-0.9-10.1-1.3-15.2c-0.7-8.5-1.4-17-2.2-25.4c-0.1-1.3,0-1.9,1.7-1.9c8.3,0.1,16.5,0.1,24.8,0c1.6,0,2.2,0.3,2.3,2.1
		c0.6,6,1.5,12,2.1,18.1c0.2,1.6,0.8,2.1,2.2,2.4c8.9,2.2,17.8,4.5,26.7,6.7c2.1,0.5,4.1,0.2,6.1-0.5c9.3-1.7,18.6-3.4,28-5
		c2.1-0.4,2-1.8,2.1-3.2c1.1-11.4,2.2-22.8,3.4-34.2c0.2-1.6-0.4-1.8-1.7-1.8c-11.2,0.1-22.4,0.1-33.6,0.1c-20.9,0-41.9-0.1-62.8,0
		c-2.1,0-2.9-0.6-3.1-2.6c-0.9-7.4-2-14.7-3.1-22.1c-0.2-1.7-0.1-2.6,1.9-3.4c21.7-9.3,43.4-18.8,65-28.7c-1,0-2,0-3,0
		c-20.7,0-41.5,0-62.2,0.1c-2.2,0-3.3-0.1-3.6-3c-0.7-7.7-2-15.3-3.2-22.9c-0.3-1.9-0.1-2.8,2.2-2.8c48,0.1,96,0.1,143.9,0.1
		c-0.1,0.2,0,0.3,0.1,0.4c0,9,0,18.1,0,27.1c-0.3,0.8-1.1,1.1-1.8,1.4c-17.7,7.2-35.3,14.4-53,21.6c-3.9,1.6-7.8,3.2-11.7,4.8
		c0.1,0.2,0.1,0.4,0.2,0.5c1.1,0,2.1,0,3.2,0c18,0,36,0,54,0c2.6,0,4.3,0.1,3.2,3.4c-0.4,1.4-0.2,2.9-0.3,4.4
		c-1.3,14.4-2.6,28.8-3.9,43.3c-1.1,12-2.1,24-3,36c-0.1,1.5-0.7,2.2-2.1,2.7c-7.6,2.3-15.2,4.6-22.7,7
		C927.9,464.8,916.9,468.3,905.9,471.8z"/>
</g>
<g>
	<path class="st3" d="M367.9,442.3c0.5,1.2,0.6,2.5,0.6,3.8c0,6.9,0,13.9,0,20.8c0,2.1,0.4,4.4-2.9,4.1c-6-1.1-11.8-3.1-17.7-4.7
		c-12-3.3-23.9-6.6-35.9-9.9c-1.6-0.4-2.3-0.9-2.5-2.8c-1.2-13.8-2.5-27.5-3.9-41.3c-0.1-1.5,0.3-1.8,1.8-1.7c8,0.1,16.1,0.2,24.1,0
		c2.7-0.1,3.2,1,3.3,3.3c0.4,6,1.1,12,1.6,18c0.1,1.4,0.7,1.9,2,2.2C348.3,436.8,358.1,439.6,367.9,442.3z"/>
	<path class="st4" d="M369.1,521.7c-0.4,0-0.8,0-1.2,0c-6-2.1-12.1-3.6-18.2-5.1c-5.3-1.6-10.5-3.3-15.9-4.3
		c-3.2-1.4-6.6-2.1-10-2.8c-2.8-1.2-5.8-1.8-8.8-2.5c-6-2.1-12.2-3.4-18.2-5.2c-2.4-0.6-4.7-1.2-7.1-1.9c-4.2-1.2-8.3-2.4-12.5-3.5
		c-1.5-0.4-2.2-1-2.5-2.9c-0.4-2.8,0.2-5.6-0.9-8.3c0-0.8-0.1-1.6-0.1-2.3c-0.4-3.7-0.2-7.5-1.2-11.2c0.1-4.4-0.4-8.7-1.2-13
		c0.1-4.5-0.4-9-1.2-13.5c0.3-2.8-0.3-5.5-0.6-8.2c-0.2-3.7-0.4-7.5-1.1-11.2c-0.2-2.4,0.3-4.8-0.7-7c0-4.2-0.3-8.3-1.1-12.4
		c0-0.8-0.1-1.6-0.1-2.3c-0.2-3.9-0.4-7.9-1.2-11.7c0.4-2.8-0.3-5.5-0.6-8.2c-0.2-3.7-0.4-7.5-1.1-11.2c-0.2-4.3-0.3-8.7-1.3-12.9
		c0.2-4.4-0.4-8.7-1.1-12.9c-0.1-2.6,0.2-5.1-0.7-7.6c0-4.2-0.4-8.3-1.1-12.4c0-0.8-0.1-1.6-0.1-2.3c-0.2-3.9-0.4-7.9-1.2-11.7
		c0.3-2.6-0.4-5.1-0.6-7.7c0-0.4,0.1-0.8,0-1.2c-1.2-13.2-2.2-26.4-3.5-39.5c-0.3-2.5,0.6-2.9,2.8-2.8c7.5,0.1,15.1,0.1,22.6,0.1
		c17.6,0,35.3-0.1,52.9-0.1c8.8,0,17.6,0,26.5,0c2.9,0,5.9,0,8.8,0c17.7,0,35.4,0.1,53.1,0.1c20.5,0,41.1-0.1,61.6-0.1
		c1.5,2.4-0.6,4.8,0.1,7.2c-0.5,5.1-1.3,10.1-1.3,15.3c-0.8,3.7-0.7,7.5-1.1,11.2c-0.4,2.9-0.8,5.9-0.7,8.8
		c-0.8,3.5-0.7,7.1-1.1,10.6c-0.2,2.4-0.8,4.7-0.6,7.1c-0.4,2.9-0.8,5.9-0.7,8.8c-0.8,2.1-0.5,4.3-0.6,6.5c-0.7,3.7-1,7.4-1.1,11.2
		c-0.6,2.9-0.7,5.9-0.7,8.8c-0.7,3.5-1,7-1.1,10.6c-0.6,5.1-1.2,10.2-1.3,15.3c-1.1,8.8-1.9,17.6-2.3,26.5c-0.8,2.1-0.5,4.3-0.6,6.5
		c-0.8,3.9-0.9,7.8-1.1,11.8c-0.5,2.7-0.8,5.5-0.7,8.2c-0.7,3.5-1,7-1.1,10.6c-0.2,2.6-0.9,5.1-0.6,7.7c-0.4,3.9-0.8,7.8-1.2,11.7
		c0,1-0.1,2-0.1,2.9c-1,6.8-1.6,13.7-1.8,20.6c-0.7,1-0.7,2.3-0.5,3.3c0.3,2.3-0.8,3.2-2.9,3.7c-4.2,1.1-8.3,2.4-12.4,3.6
		c-3.4,0.6-6.8,1.5-10,2.8c-5.4,0.9-10.6,2.8-15.9,4.2c-3.3,0.9-6.7,1.9-10,2.8c-2.8,0.7-5.6,1.1-8.2,2.4c-6,1.3-11.8,3-17.6,4.8
		C380,518.6,374.5,520.2,369.1,521.7z M367.9,442.3c-9.8-2.7-19.5-5.5-29.4-8.2c-1.4-0.4-1.9-0.8-2-2.2c-0.5-6-1.2-12-1.6-18
		c-0.2-2.3-0.6-3.4-3.3-3.3c-8,0.2-16.1,0.1-24.1,0c-1.4,0-1.9,0.3-1.8,1.7c1.3,13.8,2.7,27.5,3.9,41.3c0.2,1.9,0.9,2.4,2.5,2.8
		c12,3.3,23.9,6.6,35.9,9.9c5.9,1.6,11.7,3.6,17.7,4.7c1.9,1.2,3.8,0.9,5.8,0.3c17.5-4.9,35-9.8,52.6-14.5c2.8-0.8,3.7-2.2,3.9-5
		c0.8-10.9,1.9-21.7,2.8-32.6c1.5-16.6,2.8-33.2,4.4-49.8c0.2-1.7-0.2-1.9-1.6-1.9c-21.1,0.1-42.2,0.1-63.2,0.1
		c-12.1,0-24.3-0.2-36.4,0c-2.8,0-3.4-1.1-3.6-3.4c-0.6-8.1-1.3-16.3-2-24.4c-0.1-0.9-0.1-1.5,0.8-1.8c1.1,0,2.1,0.1,3.2,0.1
		c30.8,0,61.7,0,92.5,0c3.7,0,7.4,0,11.2,0c1.4,0,1.9-0.3,2.1-1.8c0.4-2.6,0.4-5.2,0.7-7.8c0.5-6.2,1.7-12.3,1.4-18.6
		c-0.8-0.9-1.8-0.4-2.7-0.4c-45.9,0-91.7,0-137.6,0c-0.4,0-0.8,0-1.2,0c-1.5-0.2-2,0.4-1.8,2c0.5,4.9,0.8,9.9,1.3,14.8
		c1.1,11.8,2.2,23.6,3.3,35.5c1,10.6,2.1,21.1,2.8,31.7c0.2,2.9,1.3,2.9,3.5,2.9c32.1,0,64.1,0,96.2,0c-0.2,2.1-0.4,4.3-0.6,6.4
		c-0.8,9.4-1.6,18.8-2.4,28.2c-0.1,1.6-0.7,2.7-2.7,3.2C388,436.8,378,439.6,367.9,442.3z"/>
	<path class="st4" d="M370.8,198.3c5.1,0,10.2,0,15.3,0c2.1,3.5,4.1,7,6.3,10.4c0.9,1.5,1.8,4.4,3,4.1c1.6-0.4,2.5-2.9,3.2-4.8
		c2.2-3.1,4.4-6.2,5.8-9.7c5.3,0,10.6,0,15.9,0c0,0.2,0,0.4-0.1,0.6c-0.3,2.7-0.3,5.5,0,8.2c0,2.9,0,5.9,0,8.8
		c-0.3,2.9-0.3,5.9,0,8.8c0,2.9,0,5.9,0,8.8c-0.1,2.2-0.2,4.4-0.2,6.6c0,1.3-0.4,1.7-1.7,1.6c-2.3,0-4.6,0.1-6.9,0.2
		c-2-0.1-3.9-0.1-5.9-0.2c0-2.8-0.1-5.5-0.1-8.3c0-2.9,0-5.9,0-8.8c0-0.2,0-0.4-0.1-0.6c0-0.8,0-1.6,0.1-2.3c0-0.3-0.1-0.7-0.1-1
		c-0.2,0.3-0.4,0.6-0.6,0.9c-0.8,1.2-1.6,2.4-2.4,3.5c-1.8,2.7-3.5,5.5-5.3,8.2c-1,0.3-0.7,2.9-2.6,1.6c-0.4-0.7-0.8-1.4-1.2-2.1
		c-2.4-3.7-4.8-7.4-7.2-11.1c-0.2-0.3-0.4-0.6-0.6-0.9c-0.8,0.6-0.3,1.3-0.2,2c-0.1,6.3-0.1,12.6-0.2,18.8c-2.9,0.1-5.9,0.1-8.8,0.2
		c-1.6,0-3.2,0-4.7,0c-1.3-2.7-0.1-5.7-0.7-8.5c0-2.9,0-5.9,0-8.8c0-2.9,0-5.9,0-8.8c0-2.9,0-5.9,0-8.8
		C370.8,204.2,370.8,201.2,370.8,198.3z"/>
	<path class="st4" d="M303.1,198.3c4.9,0,9.8,0,14.7,0c0,11.8,0.1,23.5,0.1,35.3c-0.6,2.8,0.6,5.7-0.7,8.5c-0.6,0-1.2,0-1.8,0
		c-3.3-0.4-6.7-0.4-10,0c-0.6,0-1.2,0-1.8,0c-1.3-2.7-0.1-5.7-0.7-8.5c0-2,0-3.9-0.1-5.9c0.1-0.4,0-0.6-0.4-0.4c-1.8,0-3.5,0-5.3,0
		c-1.4,0-2.9,0.1-4.3-0.1c-2.3-0.3-3.1,0.4-3.1,2.9c0.1,3.9,0.6,7.9-0.3,11.9c-0.3,0-0.5,0-0.8,0s-0.6,0.1-0.9,0.1
		c-2.6,0-5.1,0-7.7,0c-1-0.1-2-0.3-2.9-0.2c-1.6,0.2-1.9-0.5-1.9-2c0.1-13.9,0.1-27.7,0.1-41.6c4.9,0,9.8,0,14.7,0
		c-0.4,2.9-0.3,5.9-0.1,8.8c-0.3,1.6-0.3,3.1,0,4.7c-0.1,0.6,0.1,0.8,0.7,0.7c2.2,0.3,4.3,0.3,6.5,0c6.1,0.5,6.1,0.5,5.8-5.4
		c0-2.8,0-5.5,0-8.3C303.1,198.7,303.1,198.5,303.1,198.3z"/>
	<path class="st4" d="M324.3,198.3c13.3,0,26.7,0,40,0c0,0.2,0.1,0.4,0.1,0.6c0,2.7,0,5.5,0,8.2c0,0.2,0,0.4,0.1,0.6
		c0,1.6,0,3.1,0,4.7c-3.5,0.8-7,0.3-10.5,0.3c-2,0-2.7,0.5-2.6,2.6c0.1,8,0,16,0.1,24.1c0,0.8-0.2,1.6,0.4,2.2
		c-0.4,0.2-0.7,0.3-1.1,0.5c-3.3-0.4-6.7-0.4-10,0c-1.3-0.1-2.6-0.2-3.9-0.3c0-2.7-0.1-5.4-0.1-8.1c0-2.9,0-5.9,0-8.8
		c0.3-2.9,0.3-5.9,0-8.8c0.7-2.5,0-3.7-2.7-3.2c-0.5,0.1-1,0.1-1.4,0.2c-2.7-0.3-5.4-0.3-8,0C323.8,208,324.3,203.1,324.3,198.3z"/>
	<path class="st4" d="M427.3,198.3c4.9,0,9.8,0,14.7,0c0,0.2,0,0.4-0.1,0.6c0,2.7,0.1,5.5,0.1,8.2c-0.4,2.9-0.4,5.9,0,8.8
		c0,2.9,0,5.9,0,8.8c-0.7,2.1-0.1,3.1,2.2,2.8c1-0.1,2.1,0.3,3.1-0.3h0.2l0.1-0.1c0.4,0.5,0.8,0.5,1.2,0l0,0c0.4,0.5,0.8,0.5,1.2,0
		l0,0c0.4,0.5,0.8,0.5,1.2,0l0,0c0.4,0.5,0.8,0.5,1.2,0l0,0c0.4,0.5,0.8,0.5,1.2,0l0,0c0.4,0.5,0.8,0.5,1.2,0l0,0
		c0.4,0.5,0.8,0.5,1.2,0l0.2,0.1c1.9,0.7,4.5-0.6,5.8,0.5c1.5,1.2,0.1,3.8,0.7,5.8c0,2.7-0.1,5.4-0.1,8.1c-1.9,0.1-3.8,0.2-5.7,0.3
		c-3.3-0.4-6.7-0.4-10,0c-2.6,0-5.1,0-7.7,0c-3.3-0.4-6.7-0.4-10,0c-0.6-0.1-1.2-0.1-1.8-0.2c0-2.8-0.1-5.5-0.1-8.3
		c0-2.9,0-5.9,0-8.8c0-0.2,0-0.4-0.1-0.6c0-2.5,0-5.1,0-7.6c0-0.2,0-0.4,0.1-0.6c0-2.9,0-5.9,0-8.8c0-0.2,0-0.4-0.1-0.6
		c0-2.6,0-5.1,0-7.7C427.2,198.7,427.3,198.5,427.3,198.3z"/>
	<path class="st3" d="M403.8,396.5c-32.1,0-64.1-0.1-96.2,0c-2.2,0-3.3,0-3.5-2.9c-0.7-10.6-1.8-21.1-2.8-31.7
		c-1.1-11.8-2.2-23.6-3.3-35.5c-0.5-4.9-0.8-9.9-1.3-14.8c-0.2-1.6,0.3-2.2,1.8-2c0.4,0,0.8,0,1.2,0c45.9,0,91.7,0,137.6,0
		c0.9,0,2-0.5,2.7,0.4c-24.1,0-48.2,0-72.5,0c0.9,1.2,0.9,2.1,0.9,3.1c0,7.3-0.1,14.5,0,21.8c0,2.2-0.6,2.8-2.8,2.8
		c-11.2-0.1-22.4-0.1-33.5,0c-1,0-2.2-0.4-3.1,0.5c-0.9,0.3-0.9,0.8-0.8,1.8c0.8,8.1,1.4,16.3,2,24.4c0.2,2.3,0.8,3.4,3.6,3.4
		c12.1-0.2,24.3,0,36.4,0c-1.3,0.5-1.9,1-1.8,2.8c0.2,7.6,0.2,15.3,0,22.9c0,2,0.3,2.6,2.4,2.5c10-0.1,20-0.1,30,0
		C401.8,395.9,402.9,395.5,403.8,396.5z"/>
	<path class="st0" d="M403.8,396.5c-0.8-1.1-2-0.6-3-0.6c-10,0-20-0.1-30,0c-2.1,0-2.4-0.6-2.4-2.5c0.2-7.6,0.2-15.3,0-22.9
		c-0.1-1.8,0.5-2.3,1.8-2.8c21.1,0,42.2,0,63.2-0.1c1.5,0,1.8,0.2,1.6,1.9c-1.6,16.6-2.9,33.2-4.4,49.8c-0.9,10.9-2,21.7-2.8,32.6
		c-0.2,2.8-1.1,4.2-3.9,5c-17.6,4.7-35.1,9.6-52.6,14.5c-2,0.6-3.9,0.9-5.8-0.3c3.4,0.3,3-2,2.9-4.1c0-6.9,0-13.9,0-20.8
		c0-1.3-0.1-2.6-0.6-3.8c10.1-2.7,20.1-5.5,30.2-8.1c1.9-0.5,2.5-1.5,2.7-3.2c0.8-9.4,1.6-18.8,2.4-28.2
		C403.4,400.8,403.6,398.7,403.8,396.5z"/>
	<path class="st0" d="M329,338.2c0.9-0.9,2.1-0.5,3.1-0.5c11.2,0,22.4-0.1,33.5,0c2.2,0,2.9-0.6,2.8-2.8c-0.1-7.2-0.1-14.5,0-21.8
		c0-1,0-2-0.9-3.1c24.4,0,48.5,0,72.5,0c0.3,6.2-0.9,12.4-1.4,18.6c-0.2,2.6-0.2,5.2-0.7,7.8c-0.3,1.6-0.7,1.9-2.1,1.8
		c-3.7-0.1-7.4,0-11.2,0c-30.8,0-61.7,0-92.5,0C331.2,338.2,330.1,338.2,329,338.2z"/>
</g>
</svg>
