<svg id="Layer_1" data-name="Layer 1" xmlns="http://www.w3.org/2000/svg" viewBox="0 0 1280 720"><defs><style>.cls-1{fill:#f8dc3d;}.cls-2{fill:#020301;}</style></defs><path class="cls-1" d="M1280,720H0V0H1280Z"/><path class="cls-2" d="M755.17,523.07a148.23,148.23,0,0,1-43.7-7.39c-30.68-10.26-53.86-29.47-69.16-58.08-.63-1.18-.45-1.64.63-2.27q25.37-14.68,50.68-29.48c1.58-.93,1.81.2,2.35,1.06a102.78,102.78,0,0,0,15.55,19.53,64.46,64.46,0,0,0,39.69,18.1c11.56,1.1,22.81.29,33.52-4.48,8.16-3.63,14.56-9.19,17.63-17.84,4.7-13.26,0-26.83-12.05-35.6-9.67-7-20.67-11.49-31.48-16.31-13.94-6.22-28.22-11.7-41.64-19.07-11.81-6.48-22.84-14-32.23-23.81a82.57,82.57,0,0,1-22.07-43.95c-2.62-15.09-2.65-30.19,1.78-45,7.82-26.13,25-43.82,50-54,17.48-7.1,35.75-8.68,54.43-7.27,13,1,25.58,3.62,37.46,9.13,17.44,8.09,30.32,21.17,40.47,37.19,1.15,1.82,3.18,3.89,2.92,5.57s-3.23,2.52-5,3.69c-14.39,9.27-28.82,18.47-43.17,27.8-1.83,1.19-2.66,1.26-3.8-.79-3.71-6.71-8.12-13-14.37-17.55-12.8-9.39-27-11.08-41.41-5.18-20.5,8.36-19.8,34.49-8.68,45.68a61.77,61.77,0,0,0,16,11.18c13.51,7,27.74,12.33,41.54,18.61,14.93,6.8,29.47,14.28,42.64,24.19,19.77,14.88,32,34.24,35.11,59,2.19,17.68,1.22,35.1-5.74,51.8-8.87,21.29-24.69,35.6-45.44,44.81-14.72,6.53-30.25,9.67-46.3,10.54A139.94,139.94,0,0,1,755.17,523.07Z"/><path class="cls-2" d="M540.27,428.66c.61-2.32.37-4.69.37-7q0-108.87,0-217.75c0-2.7.57-3.41,3.35-3.39,19.89.14,39.79.11,59.68,0,2,0,2.59.35,2.59,2.48-.08,75.67.1,151.35-.22,227-.09,20.38-4.78,39.85-16.62,57-11.54,16.74-27.72,26.72-47.09,31.9-15.77,4.22-31.81,4.91-48,3.39-17-1.61-32.94-6.53-47.37-15.84-16.21-10.46-27.92-24.84-36.41-42-.59-1.19-.15-1.54.69-2.05q25.35-15.3,50.65-30.66c1.4-.85,1.83-.36,2.45.75a165.58,165.58,0,0,0,9.53,15.17c9.78,13.82,23.17,18.64,39.61,16.44,9-1.2,16.58-4.54,21.35-12.66,3.46-5.89,4.88-12.39,5.33-19.15Z"/></svg>