<svg id="Layer_1" data-name="Layer 1" xmlns="http://www.w3.org/2000/svg" viewBox="0 0 1280 720"><defs><style>.cls-1{fill:#505c94;}.cls-2{fill:#fdfdfe;}</style></defs><rect class="cls-1" width="1280" height="720"/><path class="cls-2" d="M479,287c14.12,0,28.26-.45,42.36.12,13.61.56,26.52,4.08,37.23,13.2,9.11,7.75,13.84,18,15.13,29.61,2.84,25.45-3.14,48.66-20,68.26-16.13,18.79-36.64,28.94-61.84,28.69-13.32-.14-26.64.09-39.95-.12-3.06-.05-3.77,1-4.24,3.74-2.45,14.11-5.15,28.18-7.64,42.28-.44,2.51-1.18,3.63-4.07,3.52-12.83-.51-25.68-.79-38.52-1-2.44,0-2.2-1.24-1.88-2.82q5.64-28.32,11.28-56.63,11.53-58.32,23.06-116.65a94,94,0,0,0,1.85-9.43c.25-2.7,1.55-3,3.81-3,14.47.08,28.94,0,43.4,0Zm8.28,33.9c-5.76,0-10.47.05-15.17,0-1.76,0-2.63.4-3,2.37-3.65,21.57-7.34,43.13-11.21,64.66-.47,2.6.45,2.94,2.48,3,3,0,6,.21,8.95.21,8.1,0,16.16,1.18,24.3-.67,14.59-3.32,25.39-10.8,30.43-25.36A71.2,71.2,0,0,0,528,341.37c0-7.49-3.65-12.83-10.07-16.41a28.31,28.31,0,0,0-8-2.93C502,320.4,494.1,321,487.25,320.86Z"/><path class="cls-2" d="M802.39,287c14.12,0,28.26-.41,42.37.12,13.26.5,25.85,3.87,36.48,12.44s15.42,20.18,16.4,33.31c1.93,26-5,49.42-23.21,68.6-15.61,16.43-34.79,25.47-57.82,25.4-13.9,0-27.8,0-41.69-.06-2.26,0-3.06.55-3.47,2.9-2.55,14.56-5.35,29.07-8,43.62-.34,1.94-.69,3-3.11,3-13.18-.45-26.38-.76-39.57-1-2.3,0-1.88-1.09-1.58-2.57q6.46-32.54,12.86-65.09,10.86-55,21.74-109.93c.38-1.91.81-3.81,1.2-5.72,1-5.16,1-5.16,6.37-5.16h41Zm9.19,33.91c-5.48,0-10.08.1-14.67-.05-2.19-.07-2.89.72-3.25,2.86q-5.11,30.33-10.47,60.61c-1.1,6.3-1.18,6.59,5.07,6.55,8.7-.05,17.37,1.55,26.08.2,20.56-3.19,31.62-13.12,36.3-32.77a76.05,76.05,0,0,0,2.09-16.35c.16-9.87-6.6-17.3-17.69-19.77C827,320.35,818.82,321,811.58,320.86Z"/><path class="cls-2" d="M568.48,428.8c3.35-17,6.61-33.65,9.88-50.28q13.33-67.8,26.62-135.61c.52-2.68,1.41-3.66,4.36-3.61,12.52.21,25,.15,37.56,0,2.42,0,3.14.46,2.64,3-2.74,14.18-5.25,28.4-8,42.57-.64,3.29.31,4,3.51,4,13.66-.11,27.34-.25,41,.2a59.05,59.05,0,0,1,28.27,7.7c12.52,7.32,18.28,19.2,15.9,33.46-5.33,32-10.88,64-16.2,96-.39,2.3-1.23,2.71-3.27,2.7q-20.85-.12-41.69,0c-2.37,0-2.72-.51-2.28-2.86q8-42.24,15.69-84.52a50.7,50.7,0,0,0,.86-7.16c.3-6.54-2.76-10.05-9.24-11-4.92-.69-9.86-.46-14.79-.48-7.92,0-15.85,0-23.77,0-1.94,0-2.75.51-3.16,2.57-6.55,32.82-13.25,65.6-19.76,98.42-.63,3.17-1.69,4.17-5,4.18-11.7,0-23.4.46-35.1.74C571.2,428.83,570,428.8,568.48,428.8Z"/></svg>