<?xml version="1.0" encoding="utf-8"?>
<!-- Generator: Adobe Illustrator 24.1.2, SVG Export Plug-In . SVG Version: 6.00 Build 0)  -->
<svg version="1.1" id="Layer_1" xmlns="http://www.w3.org/2000/svg" xmlns:xlink="http://www.w3.org/1999/xlink" x="0px" y="0px"
	 viewBox="0 0 1280 720" enable-background="new 0 0 1280 720" xml:space="preserve">
<rect fill="#FFFFFF" width="1280" height="720"/>
<path fill="#FFD242" d="M846.6,391c0,0.7,0,1.4,0,2.1c-0.2-0.2-0.3-0.7-0.7-0.2c-0.2,0.2-0.4,0.6-0.5,0.9c-1.4,8.6-3.8,17-7.1,25
	c-9.7,23.6-29.9,40.9-59.5,40.3c-45-0.9-90-0.2-135-0.3c-2.6,0-3.8,0.5-3.5,3.4c0.2,2.4,0.3,4.8,0,7.2c-0.4,3.1,0.7,3.8,3.7,3.7
	c31.1-0.1,62.2,0,93.3-0.1c2.6,0,3.5,0.6,3.5,3.4c-0.1,14.1-0.2,28.2,0.2,42.4c0.3,11.1-4.2,19.7-12.4,26.7
	c-11.1,9.4-24.5,13.5-38.4,16.4c-9.5,2-19.2,3.1-29,3.6c-0.6,0-2.5-1-2,1.2c-3.7,0-7.3,0-11,0c-1.6-1.1-3.2-1.2-4.8,0
	c-1.1,0-2.3,0-3.4,0c-1.1-1-2.3-1.1-3.4,0c-3.4,0-6.9,0-10.3,0c0.5-0.3,0.6-0.8,0-1c-0.9-0.2-1.8-0.3-2.7-0.3
	c-9.3-0.5-18.5-1.6-27.6-3.6c-14.1-3-27.6-7.5-39-16.8c-9.8-8-16.2-18.1-16.2-31.2c-0.1-30.3,0-60.6,0-90.9c0-4.4,0.1-8.7,0.7-13
	c1.9-13,7.4-24,18.2-31.9c11.5-8.5,24.6-11.9,38.7-11.9c31.3,0,62.7,0,94,0c6,0,12.1-0.1,18-1.3c12.7-2.6,23.6-8.1,31.6-18.7
	c8.8-11.7,12.2-25,12.4-39.2c0.3-15.4,0.1-30.8,0-46.1c0-2.2,0.5-2.9,2.8-2.9c10.9,0.1,21.8,0.1,32.7,0.1c3.3,0,6.6,0.3,9.8,1.3
	c14.7,4.5,25.5,13.7,33.1,27c6.6,11.6,10.3,24.1,12.6,37.2c0.1,0.9-0.4,2.3,1.3,2.3c0,0.9,0,1.8,0,2.8c-0.2,0-0.5,0-0.5,0
	c-0.1,0.4,0.1,0.6,0.5,0.7c0,20.4,0,40.9,0,61.3c-0.4-0.2-0.6-0.1-0.6,0.3S846.3,391.2,846.6,391z M715.8,516
	c0-10-8.3-18.2-18.2-18.1c-10,0.1-18.1,8.3-18,18.3c0.1,10,8.2,18,18.2,18C707.8,534.2,715.8,526.1,715.8,516z"/>
<path fill="#3972A3" d="M433.4,380.7c0-14,0-28,0-42c1.4,0.1,1.2-1.1,1.2-1.9c0.1-2.2,0.4-4.3,0.7-6.5c1.9-14.2,5.7-27.9,13.2-40.2
	c11.4-18.6,27.6-29.5,49.9-29.5c46.5-0.1,92.9,0,139.4,0.2c2.6,0,3.9-0.5,3.5-3.4c-0.2-2,0-4.1,0-6.2c0-4.8,0-4.8-4.7-4.8
	c-30.7,0-61.5,0-92.2,0.1c-3.1,0-3.7-0.9-3.7-3.8c0.1-14.9,0-29.8-0.1-44.7c0-1.9,0.1-3.9,0.6-5.8c2.9-11.6,10.9-18.9,20.8-24.3
	c16.7-9.1,34.9-12.1,53.6-13.1c0.9,0,2.6,0.9,2.3-1.3c14.9,0,29.8,0,44.8,0c-0.3,1.6,1,1.2,1.6,1.2c12.9,1.1,25.6,3.4,37.8,7.7
	c11.2,4,21.3,9.6,29.1,18.8c7.1,8.3,9.6,18,9.5,29c-0.4,30.7-0.1,61.5-0.3,92.3c-0.2,23.2-12.8,40.1-34.8,47.5
	c-7.3,2.5-14.9,3.5-22.6,3.6c-35,0.2-70-0.9-105,0.6c-20.4,0.9-35.9,10.7-44.8,29.8c-4.2,9-6.1,18.5-6.2,28.3
	c-0.2,15.3-0.1,30.5,0,45.8c0,2.7-0.5,3.8-3.5,3.8c-10.6-0.2-21.1-0.1-31.7-0.1c-3.6,0-7.1-0.5-10.5-1.4
	c-14.6-4.2-24.9-13.7-32.4-26.6c-8.9-15.1-12.4-31.8-14.4-49C434.5,383.2,435.4,381.4,433.4,380.7z M584.1,185.1
	c-9.9-0.1-18.4,8.1-18.3,18c0.1,9.6,6.7,17.9,17.8,18.3c9.8,0.3,18.3-8,18.4-17.9C602.2,193.6,594,185.2,584.1,185.1z"/>
<g>
</g>
<g>
</g>
<g>
</g>
<g>
</g>
<g>
</g>
<g>
</g>
</svg>
